
        <svg xmlns="http://www.w3.org/2000/svg" xmlns:xlink="http://www.w3.org/1999/xlink" version="1.1" width="3162.083535360532" 
        height="664.5235052575761" viewBox="0 0 3162.083535360532 664.5235052575761">
			
			<g transform="scale(8.104176768026598) translate(10, 10)">
				<defs id="SvgjsDefs1329"></defs><g id="SvgjsG1330" featureKey="rDwwlG-0" transform="matrix(0.954649031162262,0,0,0.954649031162262,-16.705713611649955,-16.761112928491364)" fill="#2177e7"><title xmlns="http://www.w3.org/2000/svg">18</title><g xmlns="http://www.w3.org/2000/svg" data-name="Group"><path data-name="Compound Path" d="M74.2,17.6a8.2,8.2,0,0,0-7.9,6.2H57.9a8.2,8.2,0,1,0,0,4h8.4a8.2,8.2,0,1,0,7.9-10.2ZM50,29.9a4.2,4.2,0,1,1,4.2-4.2A4.2,4.2,0,0,1,50,29.9Zm24.2,0a4.2,4.2,0,1,1,4.2-4.2A4.2,4.2,0,0,1,74.2,29.9Z"></path><path data-name="Compound Path" d="M25.8,66.1a8.2,8.2,0,1,0,8.2,8.2A8.2,8.2,0,0,0,25.8,66.1Zm0,12.3a4.2,4.2,0,1,1,4.2-4.2A4.2,4.2,0,0,1,25.8,78.4Z"></path><path data-name="Compound Path" d="M74.2,41.4a8.1,8.1,0,0,0-5.5,14.2L55.8,68.6A8.2,8.2,0,0,0,52,66.3V57.5a8.2,8.2,0,1,0-4,0v8.8a8.2,8.2,0,1,0,9.9,5.8L72.5,57.6l1.7.2a8.2,8.2,0,1,0,0-16.3ZM45.8,49.6A4.2,4.2,0,1,1,50,53.8,4.2,4.2,0,0,1,45.8,49.6ZM50,78.4a4.2,4.2,0,1,1,4.2-4.2A4.2,4.2,0,0,1,50,78.4ZM74.2,53.8a4.2,4.2,0,1,1,4.2-4.2A4.2,4.2,0,0,1,74.2,53.8Z"></path><path data-name="Compound Path" d="M74.2,66.1a8.2,8.2,0,1,0,8.2,8.2A8.2,8.2,0,0,0,74.2,66.1Zm0,12.3a4.2,4.2,0,1,1,4.2-4.2A4.2,4.2,0,0,1,74.2,78.4Z"></path><path data-name="Compound Path" d="M33.9,25.8a8.2,8.2,0,1,0-9.8,8v8.6a8.2,8.2,0,1,0,4,.2V33.6A8.2,8.2,0,0,0,33.9,25.8Zm-12.3,0a4.2,4.2,0,1,1,4.2,4.2A4.2,4.2,0,0,1,21.6,25.8Zm8.3,24.6a4.2,4.2,0,1,1-4.2-4.2A4.2,4.2,0,0,1,29.9,50.4Z"></path></g></g><g id="SvgjsG1331" featureKey="4AZ1rv-0" transform="matrix(4.099050521850586,0,0,4.099050521850586,81.85226700298837,-22.118641342743626)" fill="#202020"><path d="M9.54 15.82 l-5.76 0 l-1.5 4.18 l-2 0 l5.4 -14.36 l2.2 0 l5.2 14.36 l-2.12 0 z M4.38 14.1 l4.46 0 l-2.12 -6.32 l-0.04 0 z M23.119999999999997 20 l-1.66 0 l0 -1.52 l-0.04 -0.04 c-0.74 1.22 -1.64 1.86 -3.32 1.86 c-1.54 0 -3.4 -0.74 -3.4 -3.24 l0 -7.52 l1.76 0 l0 6.94 c0 1.72 0.88 2.3 2.02 2.3 c2.22 0 2.88 -1.96 2.88 -3.48 l0 -5.76 l1.76 0 l0 10.46 z M34.44 5.640000000000001 l0 14.36 l-1.66 0 l0 -1.44 l-0.04 0 c-0.76 1.42 -1.96 1.74 -2.98 1.74 c-3.56 0 -4.6 -3.34 -4.6 -5.84 c0 -2.94 1.58 -5.22 4.36 -5.22 c1.9 0 2.7 1.18 3.12 1.78 l0.04 -0.14 l0 -5.24 l1.76 0 z M26.98 14.74 c0 2.3 0.9 4.04 2.82 4.04 c1.12 0 2.86 -0.74 2.86 -3.52 c0 -1.7 -0.28 -4.44 -2.82 -4.44 c-2.72 0 -2.86 2.58 -2.86 3.92 z M38.68 9.54 l0 10.46 l-1.76 0 l0 -10.46 l1.76 0 z M38.68 7.640000000000001 l-1.76 0 l0 -2 l1.76 0 l0 2 z M45.16 11 l-1.68 0 l0 6.8 c0 0.82 0.7 0.82 1.06 0.82 l0.62 0 l0 1.38 c-0.64 0.06 -1.14 0.14 -1.32 0.14 c-1.74 0 -2.12 -0.98 -2.12 -2.24 l0 -6.9 l-1.42 0 l0 -1.46 l1.42 0 l0 -2.92 l1.76 0 l0 2.92 l1.68 0 l0 1.46 z M48.68 9.54 l0 10.46 l-1.76 0 l0 -10.46 l1.76 0 z M48.68 7.640000000000001 l-1.76 0 l0 -2 l1.76 0 l0 2 z M59.22 10.98 l-6.24 7.56 l6.42 0 l0 1.46 l-8.76 0 l0 -1.38 l6.3 -7.62 l-5.82 0 l0 -1.46 l8.1 0 l0 1.44 z M68.44 16.72 l1.76 0 c-0.06 0.5 -0.54 1.98 -1.86 2.86 c-0.48 0.32 -1.16 0.72 -2.84 0.72 c-2.94 0 -4.68 -2.22 -4.68 -5.24 c0 -3.24 1.56 -5.82 5.02 -5.82 c3.02 0 4.5 2.4 4.5 6.1 l-7.64 0 c0 2.18 1.02 3.44 3.04 3.44 c1.66 0 2.64 -1.28 2.7 -2.06 z M62.699999999999996 13.940000000000001 l5.82 0 c-0.1 -1.62 -0.78 -3.12 -2.92 -3.12 c-1.62 0 -2.9 1.5 -2.9 3.12 z"></path></g>
			</g>
		</svg>
	